
<svg xmlns="http://www.w3.org/2000/svg" version="1.1" xmlns:xlink="http://www.w3.org/1999/xlink" preserveAspectRatio="none" x="0px" y="0px" width="636px" height="27px" viewBox="0 0 636 27">
<defs>
<g id="Layer0_0_FILL">
<path fill="#55D9DC" stroke="none" d="
M 634.95 21.85
Q 637.45 20.7 635.1 19.3 572.85 7.85 511.6 4.35 314.2 -4.85 115.75 5.35 16.65 12.55 4.5 15.2 -2.65 17.05 1.6 19.7 5.85 22.35 11.9 23.25 17.9 24.15 23 26 28.1 27.85 35.75 26.3 91 16.95 159.55 14.25 286.55 6.45 430.3 8 528.1 8.3 610 18.3 632.95 22.6 634.95 21.85 Z"/>
</g>
</defs>

<g transform="matrix( 1, 0, 0, 1, 0,0) ">
<use xlink:href="#Layer0_0_FILL"/>
</g>
</svg>
